<svg xmlns="http://www.w3.org/2000/svg" xmlns:xlink="http://www.w3.org/1999/xlink" width="31.781" height="36.37" viewBox="0 0 31.781 36.37">
  <defs>
    <style>
      .cls-1 {
        fill-rule: evenodd;
        fill: url(#linear-gradient);
      }
    </style>
    <linearGradient id="linear-gradient" x1="454.984" y1="1492.03" x2="433.985" y2="1455.66" gradientUnits="userSpaceOnUse">
      <stop offset="0" stop-color="#ff4160"/>
      <stop offset="1" stop-color="#ffb70b"/>
    </linearGradient>
  </defs>
  <path id="pl01.svg" class="cls-1" d="M448.962,1473.64a0.961,0.961,0,0,0,.783.4,0.934,0.934,0,0,0,.55-0.17,0.965,0.965,0,0,0,.232-1.34l-3-4.26,3.983-2.77a0.962,0.962,0,0,0,.237-1.34l-0.783-1.11,7.27,0.64-1.854,7.06-0.782-1.11a0.955,0.955,0,0,0-1.333-.24,0.966,0.966,0,0,0-.232,1.34l1.52,2.16a1.337,1.337,0,0,0,1.253.55,1.321,1.321,0,0,0,1.068-.87,0.491,0.491,0,0,0,.023-0.08l2.352-8.96a1.313,1.313,0,0,0-.181-1.15,1.341,1.341,0,0,0-1.021-.56l-9.225-.8a0.223,0.223,0,0,0-.084-0.01,1.322,1.322,0,0,0-1.078,2.08l0.968,1.37-3.641,2.54a1.434,1.434,0,0,0-.279,2Zm8.694,14.47a0.8,0.8,0,0,0-.031-0.09,0.455,0.455,0,0,0-.029-0.08,0.423,0.423,0,0,0-.043-0.08c-0.018-.03-0.033-0.06-0.054-0.09,0,0,0-.01-0.007-0.01-0.018-.03-0.039-0.04-0.059-0.07s-0.033-.04-0.053-0.06l-4.232-3.97a0.955,0.955,0,1,0-1.31,1.39l3.38,3.18a9.18,9.18,0,0,1-4.5,1.9h0a3.1,3.1,0,0,1-1.45-.35h0c-0.026-.02-0.053-0.03-0.08-0.05a39.5,39.5,0,0,1-11.42-9.9l-0.317-.41a39.5,39.5,0,0,1-6.8-13.51c0-.02-0.011-0.04-0.017-0.06a2.568,2.568,0,0,1-.016-1.43,12.22,12.22,0,0,1,2.256-3.63l2.551,4.13a0.946,0.946,0,0,0,.815.46,0.935,0.935,0,0,0,.5-0.15,0.947,0.947,0,0,0,.311-1.31l-3.158-5.12a0.955,0.955,0,0,0-.185-0.21c-0.012-.01-0.022-0.03-0.035-0.04a0.963,0.963,0,0,0-1.353.01,14.875,14.875,0,0,0-3.5,5.21,4.406,4.406,0,0,0-.02,2.63,41.539,41.539,0,0,0,7.136,14.19l0.317,0.41a41.6,41.6,0,0,0,12,10.41,4.909,4.909,0,0,0,2.456.63h0c1.749,0,3.962-.99,6.578-2.94,0.029-.02.053-0.05,0.079-0.07a0.18,0.18,0,0,1,.046-0.04c0-.01,0-0.01.006-0.01,0.029-.03.053-0.07,0.078-0.1s0.026-.04.037-0.06a0.519,0.519,0,0,0,.051-0.1c0.009-.02.022-0.04,0.03-0.06a1.1,1.1,0,0,0,.027-0.11c0.006-.02.014-0.05,0.018-0.07a0.926,0.926,0,0,0,.007-0.11c0-.03,0-0.05,0-0.08s-0.009-.07-0.014-0.1S457.662,1488.14,457.656,1488.11Zm1.536-5.41a55.3,55.3,0,0,0-5.31-4.86,2.478,2.478,0,0,0-1.9-.61,2.871,2.871,0,0,0-1.891,1.18c-0.252.32-.763,0.95-0.95,1.17-1.152,1.35-1.954.9-2.493,0.56a30.394,30.394,0,0,1-4.143-4.55c-0.017-.02-0.036-0.05-0.055-0.07,0,0,0-.01-0.006-0.01q-0.022-.03-0.048-0.06a30.5,30.5,0,0,1-3.4-5.15c-0.2-.6-0.446-1.49,1.15-2.28,0.026-.01.069-0.03,0.123-0.05a7.532,7.532,0,0,0,2.275-1.37,2.536,2.536,0,0,0,.543-3,57.535,57.535,0,0,0-4.027-6.63,2.815,2.815,0,0,0-3.952-.83l1.056,1.6a0.905,0.905,0,0,1,1.347.35,56.873,56.873,0,0,1,3.854,6.35,0.6,0.6,0,0,1-.173.8,5.924,5.924,0,0,1-1.667.97c-0.1.04-.18,0.08-0.222,0.1-1.434.7-2.964,2.09-2.1,4.65a1.031,1.031,0,0,0,.039.1,31.778,31.778,0,0,0,3.67,5.59l0.023,0.03a0.191,0.191,0,0,0,.037.05,31.832,31.832,0,0,0,4.517,4.93,0.441,0.441,0,0,0,.089.07c2.281,1.45,3.991.31,5.024-.91,0.211-.24.759-0.93,0.99-1.22a0.08,0.08,0,0,0,.026-0.03,1.033,1.033,0,0,1,.6-0.44,0.669,0.669,0,0,1,.46.2,51.523,51.523,0,0,1,5.047,4.59,0.588,0.588,0,0,0,.081.1c0.916,0.91.63,1.45,0.537,1.63a0.954,0.954,0,0,0,.4,1.29,0.887,0.887,0,0,0,.443.11,0.946,0.946,0,0,0,.848-0.51A3.142,3.142,0,0,0,459.192,1482.7Zm-18.062-5.84a0.816,0.816,0,0,0,.257.12A0.806,0.806,0,0,1,441.13,1476.86Z" transform="translate(-428.594 -1455.66)"/>
</svg>
