<svg xmlns="http://www.w3.org/2000/svg" xmlns:xlink="http://www.w3.org/1999/xlink" width="36.375" height="33.12" viewBox="0 0 36.375 33.12">
  <defs>
    <style>
      .cls-1 {
        fill-rule: evenodd;
        fill: url(#linear-gradient);
      }
    </style>
    <linearGradient id="linear-gradient" x1="755.811" y1="1492.09" x2="736.69" y2="1458.97" gradientUnits="userSpaceOnUse">
      <stop offset="0" stop-color="#ff4160"/>
      <stop offset="1" stop-color="#ffb70b"/>
    </linearGradient>
  </defs>
  <path id="pl02.svg" class="cls-1" d="M744.8,1467.6a1.151,1.151,0,1,0-1.151,1.14A1.148,1.148,0,0,0,744.8,1467.6Zm11.565,6.31H742.131a2.745,2.745,0,0,0-2.743,2.74v8.41a2.745,2.745,0,0,0,2.743,2.74h7.721l4.391,4.03a0.955,0.955,0,0,0,.647.26,0.962,0.962,0,0,0,.649-1.67l-4.666-4.28a0.931,0.931,0,0,0-.648-0.26h-8.094a0.827,0.827,0,0,1-.829-0.82v-8.41a0.827,0.827,0,0,1,.829-0.82h14.237a0.826,0.826,0,0,1,.828.82v8.41a0.826,0.826,0,0,1-.828.82H755.39a0.96,0.96,0,0,0,0,1.92h0.978a2.745,2.745,0,0,0,2.743-2.74v-8.41A2.745,2.745,0,0,0,756.368,1473.91Zm-17.905-7.46a1.145,1.145,0,1,0,1.151,1.15A1.147,1.147,0,0,0,738.463,1466.45Zm21.744-7.48H732.285a4.225,4.225,0,0,0-4.225,4.22v16.58a4.225,4.225,0,0,0,4.225,4.22h0.275l-0.439,3.5a0.951,0.951,0,0,0,.565.99,0.871,0.871,0,0,0,.385.08,0.946,0.946,0,0,0,.729-0.33l3.889-4.58a0.957,0.957,0,1,0-1.459-1.24l-1.811,2.13,0.175-1.39a0.966,0.966,0,0,0-.95-1.08h-1.359a2.307,2.307,0,0,1-2.311-2.3v-16.58a2.307,2.307,0,0,1,2.311-2.3h27.922a2.307,2.307,0,0,1,2.312,2.3v16.58a2.318,2.318,0,0,1-1.145,1.99,0.956,0.956,0,1,0,.968,1.65,4.229,4.229,0,0,0,2.091-3.64v-16.58A4.226,4.226,0,0,0,760.207,1458.97Zm-10.216,8.63a1.151,1.151,0,1,0-1.15,1.14A1.147,1.147,0,0,0,749.991,1467.6Zm5.189,0a1.151,1.151,0,1,0-1.15,1.14A1.147,1.147,0,0,0,755.18,1467.6Z" transform="translate(-728.063 -1458.97)"/>
</svg>
