<svg xmlns="http://www.w3.org/2000/svg" xmlns:xlink="http://www.w3.org/1999/xlink" width="35.72" height="33.88" viewBox="0 0 35.72 33.88">
  <defs>
    <style>
      .cls-1 {
        fill-rule: evenodd;
        fill: url(#linear-gradient);
      }
    </style>
    <linearGradient id="linear-gradient" x1="1360.05" y1="1491.66" x2="1340.49" y2="1457.78" gradientUnits="userSpaceOnUse">
      <stop offset="0" stop-color="#ff4160"/>
      <stop offset="1" stop-color="#ffb70b"/>
    </linearGradient>
  </defs>
  <path id="pl04.svg" class="cls-1" d="M1344.52,1479.34l-1.51-3.45,1.48-.65,1.07,2.45a0.958,0.958,0,0,0,.88.57,1,1,0,0,0,.38-0.08,0.944,0.944,0,0,0,.49-1.26l-7.64-17.4a0.983,0.983,0,0,0-.68-0.56l-5.45-1.15a0.955,0.955,0,1,0-.39,1.87l4.96,1.05,2.03,4.63c-0.03.05-.06,0.11-0.09,0.17l-1.61,4.03a0.951,0.951,0,0,0,.02.74l4.31,9.8a0.943,0.943,0,0,0,.87.58,1.087,1.087,0,0,0,.39-0.08A0.965,0.965,0,0,0,1344.52,1479.34Zm-2.28-5.2-1.87-4.24,0.84-2.11,2.51,5.7Zm13.24-10.34-3.7,1.62a0.955,0.955,0,0,0,.39,1.83,0.838,0.838,0,0,0,.38-0.08l3.7-1.62a0.961,0.961,0,0,0,.49-1.26A0.944,0.944,0,0,0,1355.48,1463.8Zm12.55,9.89-6.52-14.84a0.944,0.944,0,0,0-1.26-.49l-14.86,6.51a1,1,0,0,0-.5.53,0.95,0.95,0,0,0,.01.74l4.89,11.12a0.961,0.961,0,0,0,1.76-.77l-4.51-10.25,13.1-5.75,5.76,13.1-10.28,4.51a0.953,0.953,0,0,0,.38,1.83,1.087,1.087,0,0,0,.39-0.08l11.15-4.9A0.948,0.948,0,0,0,1368.03,1473.69Zm-3.07,4.43-7.28,3.19a0.955,0.955,0,0,0,.39,1.83,0.9,0.9,0,0,0,.38-0.08l7.28-3.19A0.956,0.956,0,1,0,1364.96,1478.12Zm-13.4,4.42a2.845,2.845,0,0,0-2.2.05,2.808,2.808,0,0,0-1.52,1.58,2.86,2.86,0,0,0,1.63,3.72,2.932,2.932,0,0,0,2.2-.05A2.872,2.872,0,0,0,1351.56,1482.54Zm-0.66,3.55a0.962,0.962,0,0,1-1.26-.49,0.928,0.928,0,0,1-.02-0.73,0.917,0.917,0,0,1,.51-0.53,0.838,0.838,0,0,1,.38-0.08,1.03,1.03,0,0,1,.35.06,0.981,0.981,0,0,1,.53.51A0.961,0.961,0,0,1,1350.9,1486.09Zm-2.98-6.78a6.457,6.457,0,0,0,2.59,12.36,6.525,6.525,0,0,0,2.6-.55A6.45,6.45,0,0,0,1347.92,1479.31Zm4.42,10.06a4.561,4.561,0,0,1-3.48.07,4.546,4.546,0,0,1-2.58-5.87A4.54,4.54,0,1,1,1352.34,1489.37Zm3.19-13.33a0.958,0.958,0,0,0,.88.57,0.909,0.909,0,0,0,.39-0.08l3.65-1.6a0.961,0.961,0,0,0,.49-1.26,0.944,0.944,0,0,0-1.26-.49l-3.65,1.6A0.957,0.957,0,0,0,1355.53,1476.04Z" transform="translate(-1332.41 -1457.78)"/>
</svg>
