<svg xmlns="http://www.w3.org/2000/svg" xmlns:xlink="http://www.w3.org/1999/xlink" width="91.782" height="64" viewBox="0 0 91.782 64">
  <defs>
    <style>
      .cls-1 {
        fill-rule: evenodd;
        fill: url(#linear-gradient);
      }
    </style>
    <linearGradient id="linear-gradient" x1="864.897" y1="988" x2="827.947" y2="924" gradientUnits="userSpaceOnUse">
      <stop offset="0" stop-color="#1d9dd7"/>
      <stop offset="1" stop-color="#36448f"/>
    </linearGradient>
  </defs>
  <path id="_02.svg" data-name="02.svg" class="cls-1" d="M892.211,974.164a1,1,0,0,1-.871.51H883.5a24.02,24.02,0,0,1,.676,5.724,1,1,0,0,1-1,1h-5.845c0.068,1.765.105,3.643,0.105,5.611a1,1,0,0,1-1,1H832.979a1,1,0,0,1-1-1,102.4,102.4,0,0,0-.858-14.319h-8.811c-0.012,0-.023.006-0.034,0.006a1.015,1.015,0,0,1-.324-0.054l-20.74-7.1a0.994,0.994,0,0,1-.674-0.942V947.141a1,1,0,0,1,1-1h12.12c-1.427-5.253-1.311-11.751.355-21.324A1,1,0,0,1,815,924h43.467a1,1,0,0,1,.983,1.166c-1.647,9.469-1.725,15.988-.245,20.983h3.112a23.059,23.059,0,0,1,17.266,7.774l2.578,2.913a0.924,0.924,0,0,1,.071.122,0.955,0.955,0,0,1,.1.181,0.944,0.944,0,0,1,.05.246,0.929,0.929,0,0,1,.021.105v0.056a0.075,0.075,0,0,1,0,.015v7.259c3.731,1.962,7.533,4.685,9.786,8.339A0.994,0.994,0,0,1,892.211,974.164Zm-10.05,5.238a21.167,21.167,0,0,0-.746-4.728H847.873a1,1,0,0,1-.85-0.474c-2.7-4.383-8.054-7.375-12.447-9.218a19.994,19.994,0,0,1,4.337,6.313,22.214,22.214,0,0,1,1.77,8.107h41.478Zm-49.189-7.87a97.9,97.9,0,0,1,1,14.477H875.44c-0.01-1.617-.05-3.148-0.108-4.615H839.7a1,1,0,0,1-1-1,20.629,20.629,0,0,0-1.624-8.309,18.273,18.273,0,0,0-5.84-7.344A32.526,32.526,0,0,1,832.972,971.532Zm-29.761-23.394h-0.676v15.745l18.75,6.42V957.874l-2.331-2.636A21.07,21.07,0,0,0,803.211,948.138Zm12.627-22.149c-1.51,9.023-1.541,15.309-.105,20.157h41.393c-1.369-5.037-1.319-11.218.156-20.157H815.838Zm62.246,29.249a21.068,21.068,0,0,0-15.771-7.1H812.554a23.033,23.033,0,0,1,7.9,5.782l2.274,2.571h56.468Zm2.324,3.245H823.28V970.7H830.8c-1.312-7.037-3.241-8.083-3.261-8.094l-0.023-.011-0.009,0a0.638,0.638,0,0,1-.105-0.066,0.947,0.947,0,0,1-.114-0.071c-0.006,0-.013-0.007-0.019-0.012a1.091,1.091,0,0,1-.111-0.124,0.9,0.9,0,0,1-.077-0.087h0a0.882,0.882,0,0,1-.061-0.128c0-.012-0.012-0.023-0.017-0.035a0.8,0.8,0,0,1-.044-0.094c0-.016,0-0.035-0.008-0.051a0.88,0.88,0,0,1-.024-0.162,0.7,0.7,0,0,1-.012-0.08,0.815,0.815,0,0,1,.017-0.083,0.945,0.945,0,0,1,0-.141,1.038,1.038,0,0,1,.043-0.1,0.932,0.932,0,0,1,.311-0.44,1.022,1.022,0,0,1,.169-0.114c0.022-.011.046-0.017,0.069-0.026s0.041-.015.062-0.023,0.026-.012.04-0.016a1.01,1.01,0,0,1,.191-0.038,0.918,0.918,0,0,1,.091-0.019,0.106,0.106,0,0,1,.019,0l0.009,0h47.4a1,1,0,0,1,1,1,0.98,0.98,0,0,1-.116.444c1.266,0.453,2.691,1.011,4.193,1.706v-5.344Zm-9.159,4.19H834.232c4.678,1.831,10.862,5.029,14.186,10.009h40.991C883.89,965.875,872.159,962.9,871.249,962.673ZM853.984,950.6a1.722,1.722,0,1,1-1.725,1.723A1.725,1.725,0,0,1,853.984,950.6Zm6.559,0a1.722,1.722,0,1,1-1.724,1.723A1.726,1.726,0,0,1,860.543,950.6Zm6.56,0a1.722,1.722,0,1,1-1.725,1.723A1.725,1.725,0,0,1,867.1,950.6Zm-21.879-7.958H825.477a1,1,0,1,1,0-1.992h19.747A1,1,0,1,1,845.224,942.637Zm0-5.292H825.477a1,1,0,1,1,0-1.992h19.747A1,1,0,1,1,845.224,937.345Zm0-5.291H825.477a1,1,0,1,1,0-1.992h19.747A1,1,0,1,1,845.224,932.054Z" transform="translate(-800.531 -924)"/>
</svg>
