<svg xmlns="http://www.w3.org/2000/svg" xmlns:xlink="http://www.w3.org/1999/xlink" width="63.88" height="63.969" viewBox="0 0 63.88 63.969">
  <defs>
    <style>
      .cls-1 {
        fill-rule: evenodd;
        fill: url(#linear-gradient);
      }
    </style>
    <linearGradient id="linear-gradient" x1="1171.966" y1="987.625" x2="1135.034" y2="923.656" gradientUnits="userSpaceOnUse">
      <stop offset="0" stop-color="#1d9dd7"/>
      <stop offset="1" stop-color="#36448f"/>
    </linearGradient>
  </defs>
  <path id="_03.svg" data-name="03.svg" class="cls-1" d="M1185.45,968.675c-0.01.051-.02,0.1-0.03,0.148s-0.02.105-.04,0.153c-0.02.024-.03,0.044-0.05,0.067a0.72,0.72,0,0,1-.14.181s0,0.007-.01.01l-20.78,18.21a0.551,0.551,0,0,1-.12.074s-0.01,0-.01.006a1.025,1.025,0,0,1-.09.051v0a0.81,0.81,0,0,1-.29.058h0a0.754,0.754,0,0,1-.29-0.062l-0.02,0a0.171,0.171,0,0,1-.05-0.037c-0.01,0-.01-0.007-0.02-0.01a0.83,0.83,0,0,1-.13-0.08l-20.27-17.76-20.27,17.76a0.631,0.631,0,0,1-.13.075,0.482,0.482,0,0,1-.1.06,0.759,0.759,0,0,1-.28.058h0a0.748,0.748,0,0,1-.31-0.066c-0.02-.009-0.04-0.027-0.06-0.037a0.946,0.946,0,0,1-.2-0.149l-0.02-.015c-0.03-.029-0.03-0.065-0.06-0.1a0.787,0.787,0,0,1-.08-0.145,0.9,0.9,0,0,1-.03-0.164,0.4,0.4,0,0,1-.02-0.109V942.605a0.762,0.762,0,0,1,.03-0.148,0.782,0.782,0,0,1,.04-0.153,0.291,0.291,0,0,1,.05-0.067,0.72,0.72,0,0,1,.14-0.181v-0.01l20.78-18.21a0.674,0.674,0,0,1,.1-0.051,0.525,0.525,0,0,1,.13-0.077,0.186,0.186,0,0,1,.02-0.01,0.319,0.319,0,0,1,.08-0.017,0.759,0.759,0,0,1,.16-0.033c0.01,0,.02,0,0.03,0s0.01,0,.02,0a0.57,0.57,0,0,1,.09.017,0.785,0.785,0,0,1,.18.043c0.01,0,.02,0,0.03.008a0.832,0.832,0,0,1,.09.064,0.474,0.474,0,0,1,.1.056l20.27,17.76,20.27-17.76a0.474,0.474,0,0,1,.1-0.056,0.644,0.644,0,0,1,.14-0.082,0.756,0.756,0,0,1,.16-0.032,0.718,0.718,0,0,1,.11-0.023c0.01,0,.02,0,0.03,0a0.759,0.759,0,0,1,.16.033,0.646,0.646,0,0,1,.13.035,0.516,0.516,0,0,1,.11.074,0.771,0.771,0,0,1,.14.1,0.034,0.034,0,0,0,.02.016c0.02,0.029.03,0.065,0.05,0.1a0.835,0.835,0,0,1,.09.145,0.9,0.9,0,0,1,.03.164c0,0.037.02,0.07,0.02,0.109v44.251Zm-43.12-42.531-19.22,16.844v17.138l19.22-16.845V926.144Zm0,19.211L1123.11,962.2v22.936l19.22-16.844V945.355Zm1.56-19.211v42.148l19.22,16.844V942.988Zm40,0-19.22,16.844v12.88l19.22-16.844v-12.88Zm0,14.955-19.22,16.844v27.193l19.22-16.844V941.1Zm-4.93,11.357a0.781,0.781,0,0,1,1.03,1.175l-10.39,9.1a0.779,0.779,0,0,1-1.1-.074,0.787,0.787,0,0,1,.07-1.1Zm-9.36,16.1a0.78,0.78,0,0,1-1.1-.073,0.789,0.789,0,0,1,.07-1.1l10.39-9.11a0.781,0.781,0,0,1,1.03,1.175Zm9.36-4.453a0.781,0.781,0,0,1,1.03,1.174l-10.39,9.1a0.779,0.779,0,0,1-1.1-.074,0.787,0.787,0,0,1,.07-1.1Zm-20.16,9.917a0.779,0.779,0,0,1-.51-0.193l-10.39-9.1a0.778,0.778,0,1,1,1.02-1.175l10.4,9.1a0.787,0.787,0,0,1,.07,1.1A0.774,0.774,0,0,1,1158.8,974.022Zm0-6.323a0.779,0.779,0,0,1-.51-0.193l-10.39-9.1a0.778,0.778,0,1,1,1.02-1.175l10.4,9.1a0.787,0.787,0,0,1,.07,1.1A0.774,0.774,0,0,1,1158.8,967.7Zm0-6.324a0.774,0.774,0,0,1-.51-0.193l-10.39-9.1a0.778,0.778,0,1,1,1.02-1.175l10.4,9.1a0.786,0.786,0,0,1,.07,1.1A0.771,0.771,0,0,1,1158.8,961.375Zm0-6.315a0.775,0.775,0,0,1-.51-0.194l-10.39-9.109a0.778,0.778,0,0,1,1.02-1.174l10.4,9.109A0.782,0.782,0,0,1,1158.8,955.06Zm0-6.33a0.774,0.774,0,0,1-.51-0.193l-10.39-9.1a0.778,0.778,0,1,1,1.02-1.175l10.4,9.095a0.787,0.787,0,0,1,.07,1.1A0.771,0.771,0,0,1,1158.8,948.73Zm-20.89-10.463a0.778,0.778,0,1,1,1.02,1.175l-10.39,9.1a0.756,0.756,0,0,1-.51.193,0.778,0.778,0,0,1-.51-1.368Z" transform="translate(-1121.56 -923.656)"/>
</svg>
