<svg xmlns="http://www.w3.org/2000/svg" xmlns:xlink="http://www.w3.org/1999/xlink" width="70" height="49.562" viewBox="0 0 70 49.562">
  <defs>
    <style>
      .cls-1 {
        fill-rule: evenodd;
        fill: url(#linear-gradient);
      }
    </style>
    <linearGradient id="linear-gradient" x1="1473.807" y1="978.5" x2="1445.193" y2="928.938" gradientUnits="userSpaceOnUse">
      <stop offset="0" stop-color="#1d9dd7"/>
      <stop offset="1" stop-color="#36448f"/>
    </linearGradient>
  </defs>
  <path id="_04.svg" data-name="04.svg" class="cls-1" d="M1493.73,974.566h-4.39v3.187a0.76,0.76,0,0,1-.76.76h-8.05a0.76,0.76,0,0,1-.76-0.76v-3.187h-40.55v3.187a0.76,0.76,0,0,1-.76.76h-8.06a0.76,0.76,0,0,1-.76-0.76v-3.187h-4.38a0.76,0.76,0,0,1-.76-0.76V957.363c0-2.031.34-4.874,3.29-6.114l52.93-21.906a5.531,5.531,0,0,1,7.23,3,0.764,0.764,0,0,1-.41.99L1432,956.321a3.936,3.936,0,0,1,.5,1.9,4.445,4.445,0,0,1-.05.52h56.51a5.544,5.544,0,0,1,5.54,5.529v9.539A0.768,0.768,0,0,1,1493.73,974.566Zm-12.44,2.427h6.53v-2.427h-6.53v2.427Zm-50.12,0h6.53v-2.427h-6.53v2.427Zm-2.67-21.252a2.478,2.478,0,1,0,2.48,2.477A2.48,2.48,0,0,0,1428.5,955.741Zm57.68-23.492a4.021,4.021,0,0,0-1.81-1.5,4.1,4.1,0,0,0-3.07,0l-52.92,21.9a3.358,3.358,0,0,0-2.04,2.212,3.924,3.924,0,0,1,4.63.236Zm6.79,32.018a4.015,4.015,0,0,0-4.01-4.009h-57.04a3.945,3.945,0,0,1-5.9,1.073v11.715h66.95v-8.779Zm-54.56-1.058h15.22a0.76,0.76,0,0,1,.76.76v5.664a0.76,0.76,0,0,1-.76.76h-15.22a0.76,0.76,0,0,1-.76-0.76v-5.664A0.76,0.76,0,0,1,1438.41,963.209Zm0.76,5.664h13.7v-4.144h-13.7v4.144Zm21.43-4.044a1.823,1.823,0,1,1-1.83,1.823A1.825,1.825,0,0,1,1460.6,964.829Zm5.91,0a1.823,1.823,0,1,1-1.82,1.823A1.827,1.827,0,0,1,1466.51,964.829Zm5.92,0a1.823,1.823,0,1,1-1.82,1.823A1.818,1.818,0,0,1,1472.43,964.829Zm5.92,0a1.823,1.823,0,1,1-1.83,1.823A1.825,1.825,0,0,1,1478.35,964.829Z" transform="translate(-1424.5 -928.938)"/>
</svg>
