<svg xmlns="http://www.w3.org/2000/svg" xmlns:xlink="http://www.w3.org/1999/xlink" width="80" height="50" viewBox="0 0 80 50">
  <defs>
    <style>
      .cls-1 {
        fill-rule: evenodd;
        fill: url(#linear-gradient);
      }
    </style>
    <linearGradient id="linear-gradient" x1="1558.434" y1="979" x2="1529.566" y2="929" gradientUnits="userSpaceOnUse">
      <stop offset="0" stop-color="#1d9dd7"/>
      <stop offset="1" stop-color="#36448f"/>
    </linearGradient>
  </defs>
  <path id="_05.svg" data-name="05.svg" class="cls-1" d="M1583.13,979h-78.26a0.874,0.874,0,0,1-.87-0.878V935.666a0.874,0.874,0,0,1,.87-0.878h4.41v-4.911a0.874,0.874,0,0,1,.87-0.878H1538c2.3,0,4.91,1.137,6,3,1.09-1.863,3.7-3,6-3h28a0.752,0.752,0,0,1,.71.877v4.911h4.42a0.874,0.874,0,0,1,.87.878V978.12A0.874,0.874,0,0,1,1583.13,979Zm-73.85-6.331V936.544h-3.54v40.7h37.3a4.539,4.539,0,0,0-4.44-3.7h-28.45A0.875,0.875,0,0,1,1509.28,972.667Zm33.85-37.342c0-2.52-2.63-4.325-5.13-4.325h-27l0.02,4.644c0,0.008.01,0.014,0.01,0.022s-0.01.014-.01,0.021v36.1h27.58a6.217,6.217,0,0,1,4.53,1.969V935.325ZM1550,931h27l-0.02,4.645c0,0.007-.01.013-0.01,0.021s0.01,0.014.01,0.021v36.1H1549.4a6.217,6.217,0,0,0-4.53,1.969V935.325C1544.87,932.805,1547.5,931,1550,931Zm32.26,5.544h-3.55v36.123a0.866,0.866,0,0,1-.86.878H1549.4a4.539,4.539,0,0,0-4.44,3.7h37.3v-40.7Zm-33.28,14.4a0.874,0.874,0,0,1,.87-0.878h8.99a0.874,0.874,0,0,1,.87.878v15.6a0.875,0.875,0,0,1-.87.878h-8.99a0.875,0.875,0,0,1-.87-0.878v-15.6Zm1.74,14.718h7.25V951.82h-7.25v13.841Zm12.62-15.6h9a0.874,0.874,0,0,1,.87.878v15.6a0.875,0.875,0,0,1-.87.878h-9a0.875,0.875,0,0,1-.87-0.878v-15.6A0.874,0.874,0,0,1,1563.34,950.065Zm0.87,15.6h7.26V951.82h-7.26v13.841Zm8.13-18.108h-22.49a0.874,0.874,0,0,1-.87-0.878V936.234a0.874,0.874,0,0,1,.87-0.878h22.49a0.874,0.874,0,0,1,.87.878v10.441A0.874,0.874,0,0,1,1572.34,947.553Zm-0.87-10.442h-20.75V945.8h20.75v-8.687Zm-33.09,30.306h-9a0.875,0.875,0,0,1-.87-0.878V954.167a0.874,0.874,0,0,1,.87-0.878h9a0.874,0.874,0,0,1,.87.878v12.372A0.875,0.875,0,0,1,1538.38,967.417Zm-0.87-12.372h-7.26v10.616h7.26V955.045Zm0.87-8.173h-6.86a0.878,0.878,0,0,1,0-1.756h6.86A0.878,0.878,0,0,1,1538.38,946.872Zm0-4.2h-6.86a0.878,0.878,0,0,1,0-1.755h6.86A0.878,0.878,0,0,1,1538.38,942.673Zm0-4.2h-6.86a0.878,0.878,0,0,1,0-1.755h6.86A0.878,0.878,0,0,1,1538.38,938.473Zm-12.82,11.01h-9a0.874,0.874,0,0,1-.87-0.877V936.234a0.874,0.874,0,0,1,.87-0.878h9a0.874,0.874,0,0,1,.87.878v12.372A0.874,0.874,0,0,1,1525.56,949.483Zm-0.87-12.372h-7.26v10.617h7.26V937.111Zm-8.13,17.369h6.86a0.878,0.878,0,0,1,0,1.755h-6.86A0.878,0.878,0,0,1,1516.56,954.48Zm0,4.2h6.86a0.878,0.878,0,0,1,0,1.755h-6.86A0.878,0.878,0,0,1,1516.56,958.68Zm0,4.2h6.86a0.878,0.878,0,0,1,0,1.755h-6.86A0.878,0.878,0,0,1,1516.56,962.878Z" transform="translate(-1504 -929)"/>
</svg>
