<svg xmlns="http://www.w3.org/2000/svg" width="13.718" height="13.75" viewBox="0 0 13.718 13.75" id="svg-1"><defs id="defs-2"><style id="style-3">
	.cls-1 { fill-rule: evenodd; opacity: 0.7; }
</style></defs><path id="zoom_lupe.svg" class="cls-1" d="M974.948 651.2l-2.263-2.265a5.7 5.7.0 1 0-2.837 2.844l2.26 2.262A2.009 2.009.0 0 0 974.948 651.2zm-10.6-1.465a4.455 4.455.0 1 1 6.978-.884c-.068.115-.141.227-.22.336-.032.044-.063.088-.1.132a4.6 4.6.0 0 1-.363.416 4.364 4.364.0 0 1-.417.364c-.037.029-.076.057-.114.085a4.213 4.213.0 0 1-.39.255c-.043.025-.084.053-.128.077v0A4.457 4.457.0 0 1 964.346 649.739zm9.719 3.422a.779.779.0 0 1-1.073.0l-2.036-2.037c.019-.015.035-.033.054-.047a5.843 5.843.0 0 0 .518-.454 5.767 5.767.0 0 0 .452-.517c.015-.02.034-.036.049-.056l2.036 2.038A.764.764.0 0 1 974.065 653.161zm-5.945-7.2v-1.251h-1.25v1.251h-1.249v1.25h1.249v1.25h1.25v-1.25h1.249v-1.25H968.12z" transform="translate(-961.813 -640.875)" fill="#ffc70f" fill-opacity="1" type="solidColor"></path></svg>